<?xml version="1.0" encoding="UTF-8"?>
<svg width="1600" height="512" viewBox="0 0 1600 512" fill="none" xmlns="http://www.w3.org/2000/svg">
  <defs>
    <linearGradient id="bg" x1="80" y1="64" x2="448" y2="448" gradientUnits="userSpaceOnUse">
      <stop offset="0" stop-color="#A855F7"/>
      <stop offset="0.55" stop-color="#EC4899"/>
      <stop offset="1" stop-color="#FB7185"/>
    </linearGradient>
    <radialGradient id="glow" cx="0" cy="0" r="1" gradientUnits="userSpaceOnUse" gradientTransform="translate(190 140) rotate(48) scale(320 320)">
      <stop offset="0" stop-color="#FFFFFF" stop-opacity="0.38"/>
      <stop offset="1" stop-color="#FFFFFF" stop-opacity="0"/>
    </radialGradient>
    <filter id="shadow" x="-40" y="-40" width="680" height="680" filterUnits="userSpaceOnUse" color-interpolation-filters="sRGB">
      <feDropShadow dx="0" dy="18" stdDeviation="20" flood-color="#0F172A" flood-opacity="0.25"/>
    </filter>
  </defs>

  <!-- Mark -->
  <g filter="url(#shadow)">
    <rect x="64" y="64" width="384" height="384" rx="92" fill="url(#bg)"/>
    <rect x="64" y="64" width="384" height="384" rx="92" fill="url(#glow)"/>
    <rect x="64" y="64" width="384" height="384" rx="92" fill="none" stroke="#FFFFFF" stroke-opacity="0.16" stroke-width="2"/>
  </g>
  <g>
    <g opacity="0.98">
      <circle cx="202" cy="300" r="78" stroke="#FFFFFF" stroke-width="32" stroke-linecap="round"/>
      <circle cx="282" cy="282" r="78" stroke="#FFFFFF" stroke-width="32" stroke-linecap="round" stroke-opacity="0.92"/>
    </g>
    <path
      d="M364 156c10 28 14 32 42 42c-28 10-32 14-42 42c-10-28-14-32-42-42c28-10 32-14 42-42Z"
      fill="#FFFFFF"
      fill-opacity="0.96"
    />
    <path
      d="M332 200c5 14 7 16 21 21c-14 5-16 7-21 21c-5-14-7-16-21-21c14-5 16-7 21-21Z"
      fill="#FFFFFF"
      fill-opacity="0.78"
    />
  </g>

  <!-- Wordmark -->
  <g>
    <text x="520" y="310"
      font-family="ui-sans-serif, system-ui, -apple-system, Segoe UI, Roboto, Helvetica, Arial, 'Apple Color Emoji', 'Segoe UI Emoji'"
      font-size="160"
      font-weight="750"
      letter-spacing="-2"
      fill="#0F172A"
    >Cuggu</text>
    <text x="522" y="380"
      font-family="ui-sans-serif, system-ui, -apple-system, Segoe UI, Roboto, Helvetica, Arial"
      font-size="44"
      font-weight="600"
      letter-spacing="-0.2"
      fill="#475569"
    >AI wedding invitations</text>
  </g>
</svg>

