<?xml version="1.0" encoding="UTF-8"?>
<svg width="1024" height="1024" viewBox="0 0 1024 1024" fill="none" xmlns="http://www.w3.org/2000/svg">
  <defs>
    <linearGradient id="bg" x1="160" y1="128" x2="896" y2="928" gradientUnits="userSpaceOnUse">
      <stop offset="0" stop-color="#A855F7"/>
      <stop offset="0.55" stop-color="#EC4899"/>
      <stop offset="1" stop-color="#FB7185"/>
    </linearGradient>
    <radialGradient id="glow" cx="0" cy="0" r="1" gradientUnits="userSpaceOnUse" gradientTransform="translate(300 260) rotate(48) scale(560 560)">
      <stop offset="0" stop-color="#FFFFFF" stop-opacity="0.38"/>
      <stop offset="1" stop-color="#FFFFFF" stop-opacity="0"/>
    </radialGradient>
    <filter id="shadow" x="-40" y="-40" width="1104" height="1104" filterUnits="userSpaceOnUse" color-interpolation-filters="sRGB">
      <feDropShadow dx="0" dy="24" stdDeviation="28" flood-color="#0F172A" flood-opacity="0.25"/>
    </filter>
    <filter id="inner" x="0" y="0" width="1024" height="1024" filterUnits="userSpaceOnUse" color-interpolation-filters="sRGB">
      <feGaussianBlur in="SourceAlpha" stdDeviation="10" result="blur"/>
      <feOffset dy="10" result="offsetBlur"/>
      <feComposite in="offsetBlur" in2="SourceAlpha" operator="arithmetic" k2="-1" k3="1" result="innerShadow"/>
      <feColorMatrix in="innerShadow" type="matrix" values="0 0 0 0 0  0 0 0 0 0  0 0 0 0 0  0 0 0 0.28 0"/>
      <feComposite in="SourceGraphic" in2="innerShadow" operator="over"/>
    </filter>
  </defs>

  <!-- Background -->
  <g filter="url(#shadow)">
    <rect x="72" y="72" width="880" height="880" rx="210" fill="url(#bg)"/>
    <rect x="72" y="72" width="880" height="880" rx="210" fill="url(#glow)"/>
    <rect x="72" y="72" width="880" height="880" rx="210" fill="none" stroke="#FFFFFF" stroke-opacity="0.16" stroke-width="2"/>
  </g>

  <!-- Mark: interlocked rings + sparkle (wedding + AI) -->
  <g filter="url(#inner)">
    <g opacity="0.98">
      <circle cx="430" cy="560" r="172" stroke="#FFFFFF" stroke-width="70" stroke-linecap="round"/>
      <circle cx="604" cy="520" r="172" stroke="#FFFFFF" stroke-width="70" stroke-linecap="round" stroke-opacity="0.92"/>
    </g>

    <!-- Sparkle -->
    <path
      d="M768 316c20 56 28 64 84 84c-56 20-64 28-84 84c-20-56-28-64-84-84c56-20 64-28 84-84Z"
      fill="#FFFFFF"
      fill-opacity="0.96"
    />
    <path
      d="M702 402c10 28 14 32 42 42c-28 10-32 14-42 42c-10-28-14-32-42-42c28-10 32-14 42-42Z"
      fill="#FFFFFF"
      fill-opacity="0.78"
    />
  </g>
</svg>

